# xmcd CD database file
#
# Track frame offsets:
#	150
#	42007
#	64086
#	82683
#	114807
#	145779
#
# Disc length: 2295 seconds
#
# Revision: 0
# Processed by: cddbd v1.5.2PL0 Copyright (c) Steve Scherf et al.
# Submitted via: CDex 1.51
#
DISCID=3c08f506
DTITLE=Peter Herbolzheimer All Star Big Band - Jazz Gala Concert 79 - CD 2
DYEAR=1979
DGENRE=Jazz
TTITLE0=Spain
TTITLE1=Sophisticated Lady
TTITLE2=Lester Left Town
TTITLE3=Filibuster
TTITLE4=The Meaning Of The Blues
TTITLE5=Mburo
EXTD=YEAR: 1979
EXTT0=
EXTT1=
EXTT2=
EXTT3=
EXTT4=
EXTT5=
PLAYORDER=
